<?xml version="1.0" encoding="UTF-8"?>
<svg width="3000px" height="1500px" viewBox="0 0 3000 1500" version="1.1" xmlns="http://www.w3.org/2000/svg" xmlns:xlink="http://www.w3.org/1999/xlink">
    <title>rxdeep-local-banner</title>
    <defs>
        <linearGradient x1="50%" y1="9.02229291%" x2="50%" y2="39.1992432%" id="linearGradient-1">
            <stop stop-color="#632F88" offset="0%"></stop>
            <stop stop-color="#E01D85" offset="100%"></stop>
        </linearGradient>
        <linearGradient x1="50%" y1="14.9048624%" x2="46.5920968%" y2="67.0321953%" id="linearGradient-2">
            <stop stop-color="#DA1F85" offset="0%"></stop>
            <stop stop-color="#B52486" offset="43.8126605%"></stop>
            <stop stop-color="#5D2F88" offset="100%"></stop>
        </linearGradient>
    </defs>
    <g id="rxdeep-local-banner" stroke="none" stroke-width="1" fill="none" fill-rule="evenodd">
        <path d="M142.190739,864.000125 L142.190739,859.776118 L107.727851,859.776118 L107.727851,797.760008 L103.12,797.760008 L103.12,864.000125 L142.190739,864.000125 Z M179.055248,864.000125 C188.142968,864.000125 192.686828,859.424117 192.686828,850.272101 L192.686828,850.272101 L192.686828,828.288062 C192.686828,819.136046 188.142968,814.560038 179.055248,814.560038 L179.055248,814.560038 L165.615663,814.560038 C156.463945,814.560038 151.888086,819.136046 151.888086,828.288062 L151.888086,828.288062 L151.888086,850.272101 C151.888086,859.424117 156.463945,864.000125 165.615663,864.000125 L165.615663,864.000125 L179.055248,864.000125 Z M179.439174,860.160119 L165.13574,860.160119 C159.183976,860.160119 156.208094,857.184113 156.208094,851.232103 L156.208094,851.232103 L156.208094,827.328061 C156.208094,821.37605 159.183976,818.400045 165.13574,818.400045 L165.13574,818.400045 L179.439174,818.400045 C185.390938,818.400045 188.36682,821.37605 188.36682,827.328061 L188.36682,827.328061 L188.36682,851.232103 C188.36682,857.184113 185.390938,860.160119 179.439174,860.160119 L179.439174,860.160119 Z M240.591012,864.000125 L243.278917,861.984122 L243.278917,860.160119 L220.719715,860.160119 C214.767926,860.160119 211.792031,857.184113 211.792031,851.232103 L211.792031,851.232103 L211.792031,827.328061 C211.792031,821.37605 214.767926,818.400045 220.719715,818.400045 L220.719715,818.400045 L243.278917,818.400045 L243.278917,816.576042 L240.591012,814.560038 L221.199698,814.560038 C212.048022,814.560038 207.472184,819.136046 207.472184,828.288062 L207.472184,828.288062 L207.472184,850.272101 C207.472184,859.424117 212.048022,864.000125 221.199698,864.000125 L221.199698,864.000125 L240.591012,864.000125 Z M291.471002,864.000125 L291.471002,828.288062 C291.471002,819.136046 286.927152,814.560038 277.839452,814.560038 L277.839452,814.560038 L260.272031,814.560038 L257.584119,816.576042 L257.584119,818.400045 L278.223439,818.400045 C284.175243,818.400045 287.151145,821.37605 287.151145,827.328061 L287.151145,827.328061 L287.151145,835.968076 L266.991809,835.968076 C257.776113,835.968076 253.168265,840.640084 253.168265,849.984101 C253.168265,859.328117 257.776113,864.000125 266.991809,864.000125 L266.991809,864.000125 L291.471002,864.000125 Z M287.150995,860.160119 L266.415888,860.160119 C260.464144,860.160119 257.488272,857.184113 257.488272,851.232103 L257.488272,851.232103 L257.488272,848.736098 C257.488272,842.784088 260.464144,839.808083 266.415888,839.808083 L266.415888,839.808083 L287.150995,839.808083 L287.150995,860.160119 Z M318.44705,864.672127 L318.44705,860.92812 C313.711593,860.80012 311.343864,858.368115 311.343864,853.632107 L311.343864,853.632107 L311.343864,792.96 L307.02436,792.96 L307.02436,853.248106 C307.02436,860.86412 310.831923,864.672127 318.44705,864.672127 L318.44705,864.672127 Z M340.527089,864.672127 L340.527089,860.92812 C335.791632,860.80012 333.423903,858.368115 333.423903,853.632107 L333.423903,853.632107 L333.423903,792.96 L329.104399,792.96 L329.104399,853.248106 C329.104399,860.86412 332.911962,864.672127 340.527089,864.672127 L340.527089,864.672127 Z M364.431883,883.200159 L389.199175,815.52004 L388.623191,814.560038 L384.879298,814.560038 L368.559765,860.160119 L366.063837,860.160119 L349.744304,814.560038 L346.000411,814.560038 L345.424427,815.52004 L363.183919,864.000125 L367.023809,864.000125 L360.112007,882.240158 L360.687991,883.200159 L364.431883,883.200159 Z M427.984436,864.000125 L427.984436,837.696079 L454.191701,837.696079 C463.407443,837.696079 468.015314,833.088071 468.015314,823.872055 L468.015314,823.872055 L468.015314,811.584033 C468.015314,802.368017 463.407443,797.760008 454.191701,797.760008 L454.191701,797.760008 L423.376565,797.760008 L423.376565,864.000125 L427.984436,864.000125 Z M454.767615,833.472071 L427.984573,833.472071 L427.984573,801.984016 L454.767615,801.984016 C460.527409,801.984016 463.407306,804.864021 463.407306,810.624031 L463.407306,810.624031 L463.407306,824.736056 C463.407306,830.560066 460.527409,833.472071 454.767615,833.472071 L454.767615,833.472071 Z M516.879554,864.000125 L519.567469,861.984122 L519.567469,860.160119 L494.896249,860.160119 C488.944437,860.160119 485.968531,857.184113 485.968531,851.232103 L485.968531,851.232103 L485.968531,841.056085 L521.487408,841.056085 L521.487408,828.288062 C521.487408,819.136046 516.943552,814.560038 507.855839,814.560038 L507.855839,814.560038 L495.376234,814.560038 C486.224523,814.560038 481.648668,819.136046 481.648668,828.288062 L481.648668,828.288062 L481.648668,850.272101 C481.648668,859.424117 486.224523,864.000125 495.376234,864.000125 L495.376234,864.000125 L516.879554,864.000125 Z M517.1674,837.216078 L485.968675,837.216078 L485.968675,827.328061 C485.968675,821.37605 488.944554,818.400045 494.896311,818.400045 L494.896311,818.400045 L508.239765,818.400045 C514.191522,818.400045 517.1674,821.37605 517.1674,827.328061 L517.1674,827.328061 L517.1674,837.216078 Z M540.976529,864.000125 L540.976529,820.992049 C542.448449,819.264046 544.784321,818.400045 547.984147,818.400045 L547.984147,818.400045 L560.271476,818.400045 L560.271476,816.576042 L557.583623,814.560038 L548.464121,814.560038 C542.768431,814.560038 538.832646,816.320041 536.656765,819.840047 L536.656765,819.840047 L536.656765,864.000125 L540.976529,864.000125 Z M590.320052,864.000125 C599.59972,864.000125 604.239554,859.712118 604.239554,851.136103 C604.239554,843.392089 600.335694,838.880081 592.527973,837.600079 L592.527973,837.600079 L580.432406,835.584075 C575.56858,834.752074 573.136667,831.872069 573.136667,826.94406 C573.136667,821.24805 576.080562,818.400045 581.968351,818.400045 L581.968351,818.400045 L601.935636,818.400045 L601.935636,816.576042 L599.247733,814.560038 L582.640327,814.560038 C573.424657,814.560038 568.816822,818.816046 568.816822,827.328061 C568.816822,834.304073 572.816678,838.46408 580.816392,839.808083 L580.816392,839.808083 L592.911959,841.824086 C597.519795,842.592088 599.823712,845.856093 599.823712,851.616103 C599.823712,857.312114 596.911816,860.160119 591.088025,860.160119 L591.088025,860.160119 L568.816822,860.160119 L568.816822,861.984122 L571.504725,864.000125 L590.320052,864.000125 Z M623.247588,804.672021 L623.247588,798.048009 L617.968908,798.048009 L617.968908,804.672021 L623.247588,804.672021 Z M622.767587,864.000125 L622.767587,814.560038 L618.448909,814.560038 L618.448909,864.000125 L622.767587,864.000125 Z M658.480172,864.000125 C667.75984,864.000125 672.399674,859.712118 672.399674,851.136103 C672.399674,843.392089 668.495814,838.880081 660.688093,837.600079 L660.688093,837.600079 L648.592526,835.584075 C643.7287,834.752074 641.296787,831.872069 641.296787,826.94406 C641.296787,821.24805 644.240682,818.400045 650.128471,818.400045 L650.128471,818.400045 L670.095757,818.400045 L670.095757,816.576042 L667.407853,814.560038 L650.800447,814.560038 C641.584777,814.560038 636.976942,818.816046 636.976942,827.328061 C636.976942,834.304073 640.976799,838.46408 648.976512,839.808083 L648.976512,839.808083 L661.07208,841.824086 C665.679915,842.592088 667.983832,845.856093 667.983832,851.616103 C667.983832,857.312114 665.071937,860.160119 659.248145,860.160119 L659.248145,860.160119 L636.976942,860.160119 L636.976942,861.984122 L639.664846,864.000125 L658.480172,864.000125 Z M708.111883,864.000125 L710.799742,861.984122 L710.799742,860.160119 L699.472335,860.160119 C693.520647,860.160119 690.544803,857.184113 690.544803,851.232103 L690.544803,851.232103 L690.544803,818.400045 L709.839792,818.400045 L709.839792,814.560038 L690.544803,814.560038 L690.544803,797.760008 L686.225029,797.760008 L686.225029,850.272101 C686.225029,859.424117 690.800789,864.000125 699.95231,864.000125 L699.95231,864.000125 L708.111883,864.000125 Z M756.879977,864.000125 L759.567892,861.984122 L759.567892,860.160119 L734.896672,860.160119 C728.94486,860.160119 725.968955,857.184113 725.968955,851.232103 L725.968955,851.232103 L725.968955,841.056085 L761.487831,841.056085 L761.487831,828.288062 C761.487831,819.136046 756.943975,814.560038 747.856263,814.560038 L747.856263,814.560038 L735.376657,814.560038 C726.224946,814.560038 721.649091,819.136046 721.649091,828.288062 L721.649091,828.288062 L721.649091,850.272101 C721.649091,859.424117 726.224946,864.000125 735.376657,864.000125 L735.376657,864.000125 L756.879977,864.000125 Z M757.167824,837.216078 L725.969099,837.216078 L725.969099,827.328061 C725.969099,821.37605 728.944977,818.400045 734.896734,818.400045 L734.896734,818.400045 L748.240189,818.400045 C754.191945,818.400045 757.167824,821.37605 757.167824,827.328061 L757.167824,827.328061 L757.167824,837.216078 Z M781.361052,864.000125 L781.361052,818.400045 L803.632348,818.400045 C809.58416,818.400045 812.560066,821.37605 812.560066,827.328061 L812.560066,827.328061 L812.560066,864.000125 L816.879929,864.000125 L816.879929,828.288062 C816.879929,819.136046 812.336073,814.560038 803.24836,814.560038 L803.24836,814.560038 L777.041189,814.560038 L777.041189,864.000125 L781.361052,864.000125 Z M854.320141,864.000125 L857.008,861.984122 L857.008,860.160119 L845.680593,860.160119 C839.728905,860.160119 836.75306,857.184113 836.75306,851.232103 L836.75306,851.232103 L836.75306,818.400045 L856.04805,818.400045 L856.04805,814.560038 L836.75306,814.560038 L836.75306,797.760008 L832.433287,797.760008 L832.433287,850.272101 C832.433287,859.424117 837.009047,864.000125 846.160568,864.000125 L846.160568,864.000125 L854.320141,864.000125 Z M107.727876,960.000295 L107.727876,931.776245 L130.959254,931.776245 L145.26287,960.000295 L149.00677,960.000295 L149.678752,958.656292 L136.047117,931.680245 C143.854908,931.040244 147.758804,926.464236 147.758804,917.952221 L147.758804,917.952221 L147.758804,907.584202 C147.758804,898.368186 143.150927,893.760178 133.935174,893.760178 L133.935174,893.760178 L103.12,893.760178 L103.12,960.000295 L107.727876,960.000295 Z M134.51105,927.552237 L107.728008,927.552237 L107.728008,897.984185 L134.51105,897.984185 C140.270844,897.984185 143.150741,900.86419 143.150741,906.624201 L143.150741,906.624201 L143.150741,918.816222 C143.150741,924.640232 140.270844,927.552237 134.51105,927.552237 L134.51105,927.552237 Z M197.58299,960.000295 L200.270905,957.984291 L200.270905,956.160288 L175.599686,956.160288 C169.647874,956.160288 166.671968,953.184283 166.671968,947.232272 L166.671968,947.232272 L166.671968,937.056254 L202.190845,937.056254 L202.190845,924.288232 C202.190845,915.136216 197.646988,910.560207 188.559276,910.560207 L188.559276,910.560207 L176.07967,910.560207 C166.92796,910.560207 162.352104,915.136216 162.352104,924.288232 L162.352104,924.288232 L162.352104,946.27227 C162.352104,955.424287 166.92796,960.000295 176.07967,960.000295 L176.07967,960.000295 L197.58299,960.000295 Z M197.870837,933.216247 L166.672112,933.216247 L166.672112,923.32823 C166.672112,917.376219 169.64799,914.400214 175.599747,914.400214 L175.599747,914.400214 L188.943202,914.400214 C194.894959,914.400214 197.870837,917.376219 197.870837,923.32823 L197.870837,923.32823 L197.870837,933.216247 Z M253.358935,960.000295 L253.358935,924.288232 C253.358935,915.136216 248.815085,910.560207 239.727384,910.560207 L239.727384,910.560207 L222.159963,910.560207 L219.472052,912.576211 L219.472052,914.400214 L240.111372,914.400214 C246.063176,914.400214 249.039077,917.376219 249.039077,923.32823 L249.039077,923.32823 L249.039077,931.968245 L228.879742,931.968245 C219.664046,931.968245 215.056197,936.640253 215.056197,945.98427 C215.056197,955.328286 219.664046,960.000295 228.879742,960.000295 L228.879742,960.000295 L253.358935,960.000295 Z M249.038927,956.160288 L228.303821,956.160288 C222.352077,956.160288 219.376205,953.184283 219.376205,947.232272 L219.376205,947.232272 L219.376205,944.736268 C219.376205,938.784257 222.352077,935.808252 228.303821,935.808252 L228.303821,935.808252 L249.038927,935.808252 L249.038927,956.160288 Z M301.64712,960.000295 L304.335025,957.984291 L304.335025,956.160288 L281.775823,956.160288 C275.824034,956.160288 272.848139,953.184283 272.848139,947.232272 L272.848139,947.232272 L272.848139,923.32823 C272.848139,917.376219 275.824034,914.400214 281.775823,914.400214 L281.775823,914.400214 L304.335025,914.400214 L304.335025,912.576211 L301.64712,910.560207 L282.255806,910.560207 C273.10413,910.560207 268.528292,915.136216 268.528292,924.288232 L268.528292,924.288232 L268.528292,946.27227 C268.528292,955.424287 273.10413,960.000295 282.255806,960.000295 L282.255806,960.000295 L301.64712,960.000295 Z M338.415231,960.000295 L341.10309,957.984291 L341.10309,956.160288 L329.775683,956.160288 C323.823995,956.160288 320.84815,953.184283 320.84815,947.232272 L320.84815,947.232272 L320.84815,914.400214 L340.14314,914.400214 L340.14314,910.560207 L320.84815,910.560207 L320.84815,893.760178 L316.528376,893.760178 L316.528376,946.27227 C316.528376,955.424287 321.104137,960.000295 330.255658,960.000295 L330.255658,960.000295 L338.415231,960.000295 Z M357.519119,900.67219 L357.519119,894.048178 L352.240439,894.048178 L352.240439,900.67219 L357.519119,900.67219 Z M357.039118,960.000295 L357.039118,910.560207 L352.72044,910.560207 L352.72044,960.000295 L357.039118,960.000295 Z M393.327719,960.000295 L410.991213,911.520209 L410.41523,910.560207 L406.671337,910.560207 L390.351804,956.160288 L387.855875,956.160288 L371.536342,910.560207 L367.792449,910.560207 L367.216466,911.520209 L384.975958,960.000295 L393.327719,960.000295 Z M455.631446,960.000295 L458.319361,957.984291 L458.319361,956.160288 L433.648141,956.160288 C427.696329,956.160288 424.720423,953.184283 424.720423,947.232272 L424.720423,947.232272 L424.720423,937.056254 L460.2393,937.056254 L460.2393,924.288232 C460.2393,915.136216 455.695444,910.560207 446.607731,910.560207 L446.607731,910.560207 L434.128126,910.560207 C424.976415,910.560207 420.40056,915.136216 420.40056,924.288232 L420.40056,924.288232 L420.40056,946.27227 C420.40056,955.424287 424.976415,960.000295 434.128126,960.000295 L434.128126,960.000295 L455.631446,960.000295 Z M455.919292,933.216247 L424.720567,933.216247 L424.720567,923.32823 C424.720567,917.376219 427.696446,914.400214 433.648203,914.400214 L433.648203,914.400214 L446.991657,914.400214 C452.943414,914.400214 455.919292,917.376219 455.919292,923.32823 L455.919292,923.32823 L455.919292,933.216247 Z M525.807846,960.000295 C535.023575,960.000295 539.63144,955.392287 539.63144,946.17627 L539.63144,946.17627 L539.63144,939.552259 C539.63144,931.936245 536.303538,927.456237 529.647733,926.112235 L529.647733,926.112235 L507.856373,921.792227 C503.632497,920.960226 501.520559,918.144221 501.520559,913.344212 L501.520559,913.344212 L501.520559,906.624201 C501.520559,900.86419 504.432474,897.984185 510.256303,897.984185 L510.256303,897.984185 L537.711496,897.984185 L537.711496,896.160182 L534.735584,893.760178 L510.736289,893.760178 C501.520559,893.760178 496.912695,898.368186 496.912695,907.584202 L496.912695,907.584202 L496.912695,912.576211 C496.912695,920.192224 500.240597,924.672232 506.896401,926.016235 L506.896401,926.016235 L528.687761,930.432243 C532.911637,931.264244 535.023575,934.048249 535.023575,938.784257 L535.023575,938.784257 L535.023575,947.136272 C535.023575,952.896282 532.14366,955.776287 526.383829,955.776287 L526.383829,955.776287 L496.912695,955.776287 L496.912695,957.60029 L499.984604,960.000295 L525.807846,960.000295 Z M575.535649,960.000295 L578.223508,957.984291 L578.223508,956.160288 L566.896101,956.160288 C560.944413,956.160288 557.968569,953.184283 557.968569,947.232272 L557.968569,947.232272 L557.968569,914.400214 L577.263558,914.400214 L577.263558,910.560207 L557.968569,910.560207 L557.968569,893.760178 L553.648795,893.760178 L553.648795,946.27227 C553.648795,955.424287 558.224555,960.000295 567.376076,960.000295 L567.376076,960.000295 L575.535649,960.000295 Z M625.455592,960.000295 L625.455592,924.288232 C625.455592,915.136216 620.911741,910.560207 611.824041,910.560207 L611.824041,910.560207 L594.25662,910.560207 L591.568708,912.576211 L591.568708,914.400214 L612.208028,914.400214 C618.159832,914.400214 621.135734,917.376219 621.135734,923.32823 L621.135734,923.32823 L621.135734,931.968245 L600.976398,931.968245 C591.760702,931.968245 587.152854,936.640253 587.152854,945.98427 C587.152854,955.328286 591.760702,960.000295 600.976398,960.000295 L600.976398,960.000295 L625.455592,960.000295 Z M621.135584,956.160288 L600.400477,956.160288 C594.448733,956.160288 591.472862,953.184283 591.472862,947.232272 L591.472862,947.232272 L591.472862,944.736268 C591.472862,938.784257 594.448733,935.808252 600.400477,935.808252 L600.400477,935.808252 L621.135584,935.808252 L621.135584,956.160288 Z M662.895803,960.000295 L665.583662,957.984291 L665.583662,956.160288 L654.256255,956.160288 C648.304567,956.160288 645.328723,953.184283 645.328723,947.232272 L645.328723,947.232272 L645.328723,914.400214 L664.623713,914.400214 L664.623713,910.560207 L645.328723,910.560207 L645.328723,893.760178 L641.008949,893.760178 L641.008949,946.27227 C641.008949,955.424287 645.584709,960.000295 654.73623,960.000295 L654.73623,960.000295 L662.895803,960.000295 Z M711.663897,960.000295 L714.351812,957.984291 L714.351812,956.160288 L689.680593,956.160288 C683.728781,956.160288 680.752875,953.184283 680.752875,947.232272 L680.752875,947.232272 L680.752875,937.056254 L716.271752,937.056254 L716.271752,924.288232 C716.271752,915.136216 711.727895,910.560207 702.640183,910.560207 L702.640183,910.560207 L690.160577,910.560207 C681.008867,910.560207 676.433011,915.136216 676.433011,924.288232 L676.433011,924.288232 L676.433011,946.27227 C676.433011,955.424287 681.008867,960.000295 690.160577,960.000295 L690.160577,960.000295 L711.663897,960.000295 Z M711.951744,933.216247 L680.753019,933.216247 L680.753019,923.32823 C680.753019,917.376219 683.728897,914.400214 689.680654,914.400214 L689.680654,914.400214 L703.024109,914.400214 C708.975866,914.400214 711.951744,917.376219 711.951744,923.32823 L711.951744,923.32823 L711.951744,933.216247 Z M751.216336,960.000295 C760.496004,960.000295 765.135838,955.712287 765.135838,947.136272 C765.135838,939.392258 761.231978,934.88025 753.424257,933.600248 L753.424257,933.600248 L741.32869,931.584245 C736.464864,930.752243 734.032951,927.872238 734.032951,922.944229 C734.032951,917.248219 736.976846,914.400214 742.864635,914.400214 L742.864635,914.400214 L762.83192,914.400214 L762.83192,912.576211 L760.144017,910.560207 L743.536611,910.560207 C734.320941,910.560207 729.713105,914.816215 729.713105,923.32823 C729.713105,930.304242 733.712962,934.46425 741.712676,935.808252 L741.712676,935.808252 L753.808243,937.824256 C758.416078,938.592257 760.719996,941.856263 760.719996,947.616273 C760.719996,953.312283 757.8081,956.160288 751.984309,956.160288 L751.984309,956.160288 L729.713105,956.160288 L729.713105,957.984291 L732.401009,960.000295 L751.216336,960.000295 Z" id="LocallyPersistentReactiveStates" fill="#000000" fill-rule="nonzero"></path>
        <path d="M137.391795,671.000094 L137.391795,624.920063 L159.855628,624.920063 L183.279455,671.000094 L207.087278,671.000094 L210.351254,665.24009 L188.655415,622.808062 C200.559327,618.712059 206.511282,608.664053 206.511282,592.664042 L206.511282,592.664042 L206.511282,570.776028 C206.511282,549.272013 195.759362,538.520006 174.255522,538.520006 L174.255522,538.520006 L109.744,538.520006 L109.744,671.000094 L137.391795,671.000094 Z M173.103342,599.960047 L137.392018,599.960047 L137.392018,563.480023 L173.103342,563.480023 C176.94327,563.480023 178.863233,565.400024 178.863233,569.240027 L178.863233,569.240027 L178.863233,594.200043 C178.863233,598.040046 176.94327,599.960047 173.103342,599.960047 L173.103342,599.960047 Z M250.287868,671.000094 L271.791701,639.704073 L293.295533,671.000094 L317.679343,671.000094 L319.791326,666.584091 L286.575585,619.73606 L318.831334,574.04003 L316.71935,569.624027 L292.33554,569.624027 L271.791701,599.960047 L251.247861,569.624027 L226.864051,569.624027 L224.752068,574.04003 L257.007816,619.73606 L223.792075,666.584091 L225.904059,671.000094 L250.287868,671.000094 Z M391.215794,671.000094 C427.311537,671.000094 445.359409,652.952082 445.359409,616.856058 L445.359409,616.856058 L445.359409,592.664042 C445.359409,556.568018 427.311537,538.520006 391.215794,538.520006 L391.215794,538.520006 L340.912152,538.520006 L340.912152,671.000094 L391.215794,671.000094 Z M392.751787,646.040077 L368.560171,646.040077 L368.560171,563.480023 L392.751787,563.480023 C409.391523,563.480023 417.711391,571.800028 417.711391,588.440039 L417.711391,588.440039 L417.711391,621.080061 C417.711391,637.720072 409.391523,646.040077 392.751787,646.040077 L392.751787,646.040077 Z M541.359615,671.000094 L552.879515,662.360088 L552.879515,647.960078 L502.191954,647.960078 C498.09599,647.960078 496.048008,645.912077 496.048008,641.816074 L496.048008,641.816074 L496.048008,630.296067 L556.719482,630.296067 L556.719482,600.728047 C556.719482,579.992034 546.351572,569.624027 525.615752,569.624027 L525.615752,569.624027 L500.655968,569.624027 C479.920147,569.624027 469.552237,579.992034 469.552237,600.728047 L469.552237,600.728047 L469.552237,639.896073 C469.552237,660.632087 479.920147,671.000094 500.655968,671.000094 L500.655968,671.000094 L541.359615,671.000094 Z M530.223465,609.560053 L496.048254,609.560053 L496.048254,598.808046 C496.048254,594.712043 498.096207,592.664042 502.192113,592.664042 L502.192113,592.664042 L524.079607,592.664042 C528.175512,592.664042 530.223465,594.712043 530.223465,598.808046 L530.223465,598.808046 L530.223465,609.560053 Z M653.103689,671.000094 L664.623589,662.360088 L664.623589,647.960078 L613.936028,647.960078 C609.840063,647.960078 607.792081,645.912077 607.792081,641.816074 L607.792081,641.816074 L607.792081,630.296067 L668.463556,630.296067 L668.463556,600.728047 C668.463556,579.992034 658.095646,569.624027 637.359825,569.624027 L637.359825,569.624027 L612.400041,569.624027 C591.664221,569.624027 581.296311,579.992034 581.296311,600.728047 L581.296311,600.728047 L581.296311,639.896073 C581.296311,660.632087 591.664221,671.000094 612.400041,671.000094 L612.400041,671.000094 L653.103689,671.000094 Z M641.967538,609.560053 L607.792328,609.560053 L607.792328,598.808046 C607.792328,594.712043 609.840281,592.664042 613.936186,592.664042 L613.936186,592.664042 L635.82368,592.664042 C639.919586,592.664042 641.967538,594.712043 641.967538,598.808046 L641.967538,598.808046 L641.967538,609.560053 Z M721.072156,709.400119 L721.072156,671.000094 L750.6399,671.000094 C771.37572,671.000094 781.74363,660.632087 781.74363,639.896073 L781.74363,639.896073 L781.74363,600.728047 C781.74363,579.992034 771.37572,569.624027 750.6399,569.624027 L750.6399,569.624027 L694.576385,569.624027 L694.576385,709.400119 L721.072156,709.400119 Z M749.103755,647.960078 L721.072403,647.960078 L721.072403,592.664042 L749.103755,592.664042 C753.19966,592.664042 755.247613,594.712043 755.247613,598.808046 L755.247613,598.808046 L755.247613,641.816074 C755.247613,645.912077 753.19966,647.960078 749.103755,647.960078 L749.103755,647.960078 Z M859.311681,623.768062 L859.311681,601.112048 L801.712456,601.112048 L801.712456,623.768062 L859.311681,623.768062 Z M967.599753,671.000094 L967.599753,646.040077 L910.384263,646.040077 L910.384263,538.520006 L882.736509,538.520006 L882.736509,671.000094 L967.599753,671.000094 Z M1042.48009,671.000094 C1063.21591,671.000094 1073.58382,660.632087 1073.58382,639.896073 L1073.58382,639.896073 L1073.58382,600.728047 C1073.58382,579.992034 1063.21591,569.624027 1042.48009,569.624027 L1042.48009,569.624027 L1015.60031,569.624027 C994.864489,569.624027 984.496576,579.992034 984.496576,600.728047 L984.496576,600.728047 L984.496576,639.896073 C984.496576,660.632087 994.864489,671.000094 1015.60031,671.000094 L1015.60031,671.000094 L1042.48009,671.000094 Z M1040.94394,647.960078 L1017.13646,647.960078 C1013.04055,647.960078 1010.99259,645.912077 1010.99259,641.816074 L1010.99259,641.816074 L1010.99259,598.808046 C1010.99259,594.712043 1013.04055,592.664042 1017.13646,592.664042 L1017.13646,592.664042 L1040.94394,592.664042 C1045.03985,592.664042 1047.08781,594.712043 1047.08781,598.808046 L1047.08781,598.808046 L1047.08781,641.816074 C1047.08781,645.912077 1045.03985,647.960078 1040.94394,647.960078 L1040.94394,647.960078 Z M1164.976,671.000094 L1176.49589,662.360088 L1176.49589,647.960078 L1130.80033,647.960078 C1126.70437,647.960078 1124.65639,645.912077 1124.65639,641.816074 L1124.65639,641.816074 L1124.65639,598.808046 C1124.65639,594.712043 1126.70437,592.664042 1130.80033,592.664042 L1130.80033,592.664042 L1176.49589,592.664042 L1176.49589,578.264033 L1164.976,569.624027 L1129.26435,569.624027 C1108.52855,569.624027 1098.16065,579.992034 1098.16065,600.728047 L1098.16065,600.728047 L1098.16065,639.896073 C1098.16065,660.632087 1108.52855,671.000094 1129.26435,671.000094 L1129.26435,671.000094 L1164.976,671.000094 Z M1277.87196,671.000094 L1277.87196,600.728047 C1277.87196,579.992034 1267.50405,569.624027 1246.76824,569.624027 L1246.76824,569.624027 L1216.04851,569.624027 L1204.52862,578.264033 L1204.52862,592.664042 L1245.23225,592.664042 C1249.32821,592.664042 1251.3762,594.712043 1251.3762,598.808046 L1251.3762,598.808046 L1251.3762,609.944053 L1224.88043,609.944053 C1204.14462,609.944053 1193.77671,620.12006 1193.77671,640.472073 C1193.77671,660.824087 1204.14462,671.000094 1224.88043,671.000094 L1224.88043,671.000094 L1277.87196,671.000094 Z M1251.37594,647.960078 L1226.41658,647.960078 C1222.32068,647.960078 1220.27273,645.912077 1220.27273,641.816074 L1220.27273,641.816074 L1220.27273,636.824071 C1220.27273,632.728068 1222.32068,630.680067 1226.41658,630.680067 L1226.41658,630.680067 L1251.37594,630.680067 L1251.37594,647.960078 Z M1342.768,672.920095 L1342.768,649.88008 C1334.57617,649.112079 1330.48025,644.760076 1330.48025,636.824071 L1330.48025,636.824071 L1330.48025,528.92 L1303.98479,528.92 L1303.98479,634.136069 C1303.98479,659.992086 1316.91252,672.920095 1342.768,672.920095 L1342.768,672.920095 Z" id="RxDeep-Local" fill="#000000" fill-rule="nonzero"></path>
        <g id="Group-3" transform="translate(2075.000000, 441.000000)">
            <path d="M76.40625,210 L80.8700522,216.232479 C87.1385008,224.984652 85.1250439,237.161272 76.3728705,243.429721 C73.4247993,245.541177 69.946192,246.788427 66.328125,247.03125 L54.4376985,247.829265 C43.586874,248.557508 35.3809005,257.944198 36.1091438,268.795022 C36.1787421,269.832037 36.3303345,270.861914 36.5625,271.875 L36.6315349,272.176243 C39.5828891,285.05488 32.9609676,298.21268 20.859375,303.515625 C12.6092006,307.13087 8.85184789,316.749693 12.4670929,324.999867 C13.184048,326.635996 14.1649191,328.143228 15.3705232,329.461355 L17.578125,331.875 C25.5791545,340.622792 39.1567572,341.228163 47.9045495,333.227134 C48.9311892,332.288134 49.8641043,331.251545 50.6901372,330.132 C92.0489352,274.076499 115.152223,240.594999 120,229.6875 C131.128147,204.64917 124.096897,177.30542 98.90625,147.65625 L88.4037297,153.791386 C69.8632647,164.621954 63.6131588,188.431881 74.4437275,206.972347 C75.0506945,208.011392 75.7055736,209.021697 76.40625,210 Z" id="Path-8" fill="#DF1D84"></path>
            <path d="M275.15625,207.65625 L279.620052,213.888729 C285.888501,222.640902 283.875044,234.817522 275.12287,241.085971 C272.174799,243.197427 268.696192,244.444677 265.078125,244.6875 L253.187698,245.485515 C242.336874,246.213758 234.130901,255.600448 234.859144,266.451272 C234.928742,267.488287 235.080334,268.518164 235.3125,269.53125 L235.381535,269.832493 C238.332889,282.71113 231.710968,295.86893 219.609375,301.171875 C211.359201,304.78712 207.601848,314.405943 211.217093,322.656117 C211.934048,324.292246 212.914919,325.799478 214.120523,327.117605 L216.328125,329.53125 C224.329154,338.279042 237.906757,338.884413 246.654549,330.883384 C247.681189,329.944384 248.614104,328.907795 249.440137,327.78825 C290.798935,271.732749 313.902223,238.251249 318.75,227.34375 C329.878147,202.30542 322.846897,174.96167 297.65625,145.3125 L287.15373,151.447636 C268.613265,162.278204 262.363159,186.088131 273.193727,204.628597 C273.800694,205.667642 274.455574,206.677947 275.15625,207.65625 Z" id="Path-8-Copy" fill="#DF1D84" transform="translate(261.307264, 247.031250) scale(-1, 1) translate(-261.307264, -247.031250) "></path>
            <path d="M198.046122,468.339284 L266.32667,536.619385 C284.333075,555.344692 284.114305,585.123012 265.663758,603.573559 C247.178535,622.058782 217.322918,622.243634 198.610287,604.128115 L198.046672,603.573559 L197.869694,603.396581 C207.218158,612.577789 222.239334,612.526527 231.523759,603.242102 C240.76637,593.999491 240.858796,579.071683 231.801037,569.715367 L231.523759,569.433559 L164.237997,502.147409 L198.046122,468.339284 Z M265.663309,400.722096 L300.798126,435.856669 L300.773072,435.882692 C318.133678,454.63646 317.700088,483.920143 299.472301,502.14793 C280.987078,520.633153 251.131461,520.818005 232.41883,502.702486 L231.855215,502.14793 L231.678928,501.97026 C241.026701,511.15216 256.047877,511.100898 265.332302,501.816473 C274.574913,492.573862 274.667339,477.646054 265.60958,468.289738 L265.332302,468.00793 L231.854247,434.530221 L265.663309,400.722096 Z M130.428934,400.722096 L164.237997,434.530221 L130.428934,468.339284 L96.6208094,434.530221 L130.428934,400.722096 Z M62.8125,265.488129 C76.5764885,251.72414 132.751552,235.54294 164.241002,241.099336 C157.051168,242.366919 151.151552,244.766163 147.333857,248.583857 C138.091246,257.826469 137.99882,272.754277 147.056579,282.110593 L147.333857,282.3924 L164.237997,299.295846 L130.428934,333.104909 L113.525314,316.200943 C103.024779,305.700408 89.3297363,306.840747 79.9982018,315.923288 L79.7167715,316.200943 C70.4741599,325.443555 70.3817337,340.371363 79.4394931,349.727679 L79.7167715,350.009486 L96.6208094,366.913034 L62.8117469,400.722096 L50.8800731,388.789874 C17.7377573,355.647558 13.8328705,315.358315 49.7785997,278.535332 L50.8800731,277.420556 L62.8125,265.488129 Z M198.046122,333.104909 L231.855184,366.913034 L198.046122,400.722096 L164.237997,366.913971 L198.046122,333.104909 Z" id="Shape" fill="url(#linearGradient-1)"></path>
            <path d="M164.0625,-5.68434189e-14 C216.346607,-5.68434189e-14 258.830245,41.9607967 259.674689,94.0436658 L259.6875,95.625 L259.6875,135.551669 C252.41509,140.098638 246.016434,145.912933 240.800771,152.685281 C240.543171,153.036685 240.280674,153.384167 240.015871,153.72979 C231.168807,165.652865 225.9375,180.418639 225.9375,196.40625 C225.9375,214.060444 232.316298,230.224789 242.895069,242.720234 L277.596185,277.420556 C314.719291,314.543662 311.073271,355.312787 277.596185,388.789874 L96.9524993,569.433559 C87.6165279,578.769531 87.6165279,593.906131 96.9524993,603.242102 C106.236924,612.526527 121.258099,612.577789 130.606564,603.396581 L130.429586,603.573559 C111.757643,622.245501 81.4844427,622.245501 62.8125,603.573559 C44.3619532,585.123012 44.1431824,555.344692 62.1561877,536.625515 L62.1495874,536.619385 L96.620625,502.1475 L96.0574275,502.702486 C77.3447964,520.818005 47.4891803,520.633153 29.003957,502.14793 C10.7761701,483.920143 10.3425796,454.63646 27.7031856,435.882692 L27.6781318,435.856669 L181.1424,282.3924 C190.478372,273.056429 190.478372,257.919829 181.1424,248.583857 C160.59211,228.033567 79.7167715,248.583857 62.8125,265.488129 L81.1331127,247.167061 C94.1402931,234.184745 102.1875,216.235261 102.1875,196.40625 C102.1875,180.418689 96.9562256,165.652958 88.1118051,153.727399 C87.8443261,153.384167 87.5818289,153.036685 87.3216605,152.687365 C82.1086054,145.913057 75.709941,140.098766 68.4375,135.551789 L68.4375,95.625 L68.450311,94.0436658 C69.2947554,41.9607967 111.778393,-5.68434189e-14 164.0625,-5.68434189e-14 Z M214.950943,316.200943 L63.1439563,468.00793 C53.807985,477.343902 53.807985,492.480502 63.1439563,501.816473 C72.4283807,511.100898 87.4495565,511.15216 96.7973299,501.97026 L248.759486,350.009486 C258.095458,340.673515 258.095458,325.536915 248.759486,316.200943 C239.423515,306.864972 225.557545,305.594342 214.950943,316.200943 Z" id="Shape" fill="url(#linearGradient-2)"></path>
            <circle id="Oval" fill="#FFFFFF" cx="162.5" cy="90" r="10"></circle>
        </g>
        <circle id="Oval-Copy-9" stroke-opacity="0.1" stroke="#341677" stroke-width="16" cx="775" cy="1059" r="48"></circle>
        <circle id="Oval-Copy-17" stroke-opacity="0.1" stroke="#341677" stroke-width="16" cx="703" cy="145" r="48"></circle>
        <circle id="Oval-Copy-16" stroke-opacity="0.1" stroke="#341677" stroke-width="16" cx="1214" cy="1167" r="48"></circle>
        <circle id="Oval-Copy-10" stroke-opacity="0.1" stroke="#341677" stroke-width="16" cx="1340" cy="1059" r="32"></circle>
        <circle id="Oval-Copy-19" stroke-opacity="0.1" stroke="#341677" stroke-width="16" cx="2193" cy="225" r="32"></circle>
        <circle id="Oval-Copy-6" stroke-opacity="0.1" stroke="#341677" stroke-width="16" cx="2301" cy="321" r="64"></circle>
        <circle id="Oval-Copy" stroke-opacity="0.1" stroke="#341677" stroke-width="16" cx="1418" cy="335" r="78"></circle>
        <circle id="Oval-Copy-2" stroke-opacity="0.1" stroke="#341677" stroke-width="16" cx="1638" cy="552" r="64"></circle>
        <ellipse id="Oval-Copy-5" stroke-opacity="0.1" stroke="#341677" stroke-width="16" cx="2355" cy="1039.5" rx="78" ry="79.5"></ellipse>
        <ellipse id="Oval-Copy-8" stroke-opacity="0.1" stroke="#341677" stroke-width="16" cx="878" cy="698.5" rx="78" ry="79.5"></ellipse>
        <ellipse id="Oval-Copy-7" stroke-opacity="0.1" stroke="#341677" stroke-width="16" cx="1931.5" cy="1215.5" rx="143.5" ry="142.5"></ellipse>
    </g>
</svg>